PathFileType	4	(X/Y/Z)	 s06c0001.trc
DataRate	CameraRate	NumFrames	NumMarkers	Units	OrigDataRate	OrigDataStartFrame	OrigNumFrames
200	200	4	49	mm	200	1	2000
Frame#	Time	racr			lacr			c7			jug			rlel			rdr			llel			ldr			s2			lic			ric			lasi			rasi			rpsi			lpsi			rgt			lgt			rth1			rth2			rth3			rth4			rlfc			rmfc			rsh1			rsh2			rsh3			rsh4			rlmal			rmmal			rcal			rtoe			rmt5			rmt1			lth1			lth2			lth4			lth3			llfc			lmfc			llmal			lmmal			lcal			lmt1			lmt5			lsh1			lsh2			lsh3			lsh4			ltoe			
		X1	Y1	Z1	X2	Y2	Z2	X3	Y3	Z3	X4	Y4	Z4	X5	Y5	Z5	X6	Y6	Z6	X7	Y7	Z7	X8	Y8	Z8	X9	Y9	Z9	X10	Y10	Z10	X11	Y11	Z11	X12	Y12	Z12	X13	Y13	Z13	X14	Y14	Z14	X15	Y15	Z15	X16	Y16	Z16	X17	Y17	Z17	X18	Y18	Z18	X19	Y19	Z19	X20	Y20	Z20	X21	Y21	Z21	X22	Y22	Z22	X23	Y23	Z23	X24	Y24	Z24	X25	Y25	Z25	X26	Y26	Z26	X27	Y27	Z27	X28	Y28	Z28	X29	Y29	Z29	X30	Y30	Z30	X31	Y31	Z31	X32	Y32	Z32	X33	Y33	Z33	X34	Y34	Z34	X35	Y35	Z35	X36	Y36	Z36	X37	Y37	Z37	X38	Y38	Z38	X39	Y39	Z39	X40	Y40	Z40	X41	Y41	Z41	X42	Y42	Z42	X43	Y43	Z43	X44	Y44	Z44	X45	Y45	Z45	X46	Y46	Z46	X47	Y47	Z47	X48	Y48	Z48	X49	Y49	Z49	
1	0.0050	220.766666	1417.429311	396.247983	223.629856	1429.055504	42.280684	184.281049	1489.570928	216.377362	306.502061	1395.558204	222.934061	241.192038	1198.931480	573.444386	338.654718	1037.006333	763.061261	231.916710	1207.479586	-129.773196	328.827775	1068.826728	-329.624401	113.177891	964.131060	229.223907	265.317141	1007.960913	50.517449	276.019221	986.933710	387.891358	318.334520	955.233684	79.587855	330.827551	945.394994	349.734510	137.040553	997.981415	256.610315	123.954436	994.727490	192.971374	239.105832	871.635002	399.973012	244.868149	896.241025	27.249916	249.115081	749.567325	419.762511	257.557764	659.745713	412.932696	221.338226	582.333603	399.839430	294.485548	655.569952	404.099974	204.405777	473.033535	379.895746	220.040282	449.780756	272.018662	174.044221	352.953702	401.712869	188.154597	267.527126	381.902751	159.615201	186.075204	370.453035	216.316528	269.875809	354.591227	155.135583	99.330561	358.213908	199.722415	121.306991	273.900005	109.505135	65.661268	297.076635	382.286211	75.408332	334.587267	280.768283	43.177181	392.370846	304.051136	59.499013	276.888627	228.239607	763.868014	11.458370	242.392753	677.612560	16.654503	278.813965	674.140552	25.200005	210.141482	595.130916	28.583315	181.532729	477.041880	49.483857	202.905583	454.973557	158.838723	154.702895	98.766813	55.800897	171.173057	121.520407	140.832505	100.776706	58.854060	110.501033	310.649154	51.866219	132.577696	290.134723	50.712374	17.992730	159.554591	370.146741	23.636683	177.287086	284.304420	37.929901	149.945451	201.456332	37.912888	207.561308	286.238333	61.016557	380.425182	71.394106	69.434639	
2	0.0100	220.740098	1417.432963	396.249875	223.595925	1429.047182	42.288647	184.272674	1489.564371	216.354169	306.473533	1395.560633	222.908203	241.184113	1198.921431	573.446232	338.636066	1036.998336	763.065846	231.882314	1207.486105	-129.774023	328.793643	1068.825007	-329.612834	113.154128	964.123134	229.221813	265.282499	1007.965281	50.502856	276.010558	986.942989	387.886857	318.315043	955.237966	79.572895	330.790433	945.384525	349.732635	137.019505	997.983734	256.621321	123.927361	994.724005	192.972540	239.107273	871.626724	399.954405	244.842935	896.238985	27.265511	249.092883	749.581336	419.755797	257.555200	659.752723	412.939629	221.320449	582.355855	399.840858	294.491167	655.559837	404.086902	204.403703	473.031001	379.892202	220.057694	449.779384	272.021750	174.049887	352.938811	401.696948	188.151850	267.514203	381.903107	159.650037	186.052683	370.444122	216.312166	269.870713	354.587066	155.144977	99.330537	358.218347	199.733463	121.313211	273.888638	109.505135	65.661268	297.076635	382.306322	75.410651	334.581788	280.807164	43.135506	392.377892	304.054854	59.520276	276.894434	228.202304	763.872003	11.453835	242.377823	677.627719	16.646129	278.796719	674.158762	25.203781	210.139516	595.131382	28.574477	181.535316	477.038890	49.490600	202.880165	454.979897	158.826896	154.695396	98.765435	55.810638	171.183382	121.504320	140.833051	100.768096	58.866792	110.504958	310.670272	51.884537	132.572800	290.137025	50.707585	17.995153	159.546173	370.156051	23.629172	177.300857	284.295471	37.944769	149.938677	201.444152	37.917999	207.547736	286.235850	61.027250	380.421450	71.400682	69.434058	
3	0.0150	220.732954	1417.433094	396.255462	223.556375	1429.053596	42.284641	184.231892	1489.578180	216.386502	306.458478	1395.567630	222.909545	241.168910	1198.907547	573.429506	338.606386	1036.991946	763.073876	231.850399	1207.493342	-129.782274	328.762534	1068.824600	-329.613663	113.126640	964.118172	229.223514	265.252640	1007.954153	50.506410	275.997230	986.937129	387.893474	318.285764	955.241421	79.577469	330.783146	945.406605	349.723092	137.024633	997.915467	256.605562	123.900221	994.725632	192.958766	239.097065	871.629264	399.961294	244.824617	896.245486	27.252872	249.082653	749.577880	419.756445	257.552780	659.757215	412.938656	221.333504	582.350600	399.849071	294.474634	655.565210	404.096846	204.397164	473.029752	379.903723	220.048200	449.775122	272.012379	174.046304	352.925046	401.697746	188.160771	267.529414	381.900842	159.623592	186.057132	370.458098	216.308886	269.879395	354.586412	155.129557	99.334078	358.200037	199.743039	121.318166	273.885900	109.505135	65.661268	297.076635	382.308007	75.401593	334.594391	280.747498	43.177383	392.377236	304.050666	59.514303	276.894326	228.198774	763.862656	11.452776	242.353277	677.619670	16.648412	278.781314	674.161664	25.196279	210.121455	595.132580	28.576970	181.531949	477.035665	49.490482	202.856019	454.973266	158.812713	154.709863	98.761297	55.812334	171.171088	121.505131	140.827885	100.766643	58.850008	110.493020	310.650987	51.869562	132.581770	290.144934	50.719082	18.006899	159.534806	370.147396	23.635006	177.293339	284.311358	37.937559	149.926227	201.438477	37.926789	207.538533	286.240400	61.024660	380.435403	71.414386	69.431351	
4	0.0200	220.713525	1417.419974	396.241519	223.513049	1429.069368	42.287935	184.479287	1489.912655	215.893766	306.428745	1395.548939	222.904366	241.154842	1198.912972	573.428816	338.590525	1036.971508	763.052918	231.826688	1207.486407	-129.791220	328.777560	1068.756315	-329.650438	113.109134	964.116947	229.209860	265.584245	1007.827761	50.478554	275.964723	986.931830	387.888829	318.271649	955.244114	79.572598	330.750012	945.397551	349.709167	137.020978	997.906052	256.612302	123.875416	994.761027	193.010572	239.657933	871.464999	400.085410	244.792560	896.241993	27.256245	249.078010	749.583168	419.756000	257.617444	659.879531	413.023576	221.317237	582.329624	399.835816	294.144963	655.669514	403.839473	204.401396	473.031773	379.898513	220.030619	449.777528	272.005619	174.055811	352.937079	401.699326	187.749755	267.233082	381.554620	159.650080	186.108293	370.429272	216.258049	269.444772	354.289503	154.947646	99.372371	358.288741	199.906679	121.561262	273.224563	109.505135	65.661268	297.076635	382.298957	75.417417	334.593004	280.768677	43.167067	392.364559	304.063127	59.512488	276.907303	228.166911	763.857485	11.461160	242.332341	677.451910	16.944448	278.725325	673.933152	25.295120	210.101217	595.126921	28.586339	181.884107	476.657253	49.425488	202.865187	454.976387	158.810369	154.699168	98.760830	55.814202	171.171828	121.509994	140.843511	100.760803	58.860879	110.509592	310.665881	51.883331	132.566969	290.139815	50.706953	18.003082	159.519896	370.150852	23.634598	177.007762	285.281172	36.624718	149.925926	201.433721	37.928510	207.851385	285.804217	61.391337	380.421926	71.417217	69.446149	
